<svg xmlns="http://www.w3.org/2000/svg" xmlns:xlink="http://www.w3.org/1999/xlink" width="500" zoomAndPan="magnify" viewBox="0 0 375 374.999991" height="500" preserveAspectRatio="xMidYMid meet" version="1.2"><defs><clipPath id="b16c09e900"><path d="M 181 185 L 216 185 L 216 234.925781 L 181 234.925781 Z M 181 185 "/></clipPath><clipPath id="3aa35cd1ee"><path d="M 167.90625 203.484375 L 220.746094 203.484375 L 220.746094 256.324219 L 167.90625 256.324219 Z M 167.90625 203.484375 "/></clipPath><clipPath id="93dd70fd41"><path d="M 200.480469 203.484375 L 188.167969 203.484375 C 187.171875 203.484375 186.21875 203.878906 185.515625 204.582031 C 184.8125 205.285156 184.417969 206.238281 184.417969 207.234375 L 184.417969 216.246094 C 184.417969 217.242188 184.023438 218.195312 183.320312 218.898438 C 182.617188 219.601562 181.660156 219.996094 180.667969 219.996094 L 171.65625 219.996094 C 170.660156 219.996094 169.707031 220.390625 169.003906 221.09375 C 168.300781 221.796875 167.90625 222.75 167.90625 223.746094 L 167.90625 236.0625 C 167.90625 237.054688 168.300781 238.007812 169.003906 238.714844 C 169.707031 239.417969 170.660156 239.8125 171.65625 239.8125 L 180.667969 239.8125 C 181.660156 239.8125 182.617188 240.207031 183.320312 240.910156 C 184.023438 241.613281 184.417969 242.566406 184.417969 243.5625 L 184.417969 252.574219 C 184.417969 253.566406 184.8125 254.523438 185.515625 255.226562 C 186.21875 255.929688 187.171875 256.324219 188.167969 256.324219 L 200.480469 256.324219 C 201.476562 256.324219 202.429688 255.929688 203.132812 255.226562 C 203.835938 254.523438 204.230469 253.566406 204.230469 252.574219 L 204.230469 243.5625 C 204.230469 242.566406 204.628906 241.613281 205.332031 240.910156 C 206.035156 240.207031 206.988281 239.8125 207.980469 239.8125 L 216.996094 239.8125 C 217.988281 239.8125 218.941406 239.417969 219.644531 238.714844 C 220.347656 238.007812 220.746094 237.054688 220.746094 236.0625 L 220.746094 223.746094 C 220.746094 222.75 220.347656 221.796875 219.644531 221.09375 C 218.941406 220.390625 217.988281 219.996094 216.996094 219.996094 L 207.980469 219.996094 C 206.988281 219.996094 206.035156 219.601562 205.332031 218.898438 C 204.628906 218.195312 204.230469 217.242188 204.230469 216.246094 L 204.230469 207.234375 C 204.230469 206.238281 203.835938 205.285156 203.132812 204.582031 C 202.429688 203.878906 201.476562 203.484375 200.480469 203.484375 Z M 200.480469 203.484375 "/></clipPath></defs><g id="3c5fd3c984"><rect x="0" width="375" y="0" height="374.999991" style="fill:#ffffff;fill-opacity:1;stroke:none;"/><rect x="0" width="375" y="0" height="374.999991" style="fill:#ffffff;fill-opacity:1;stroke:none;"/><path style=" stroke:none;fill-rule:nonzero;fill:#022671;fill-opacity:1;" d="M 233.328125 153.609375 C 231.707031 151.074219 229.085938 152.253906 220.164062 149.671875 C 217.75 148.976562 214.957031 148.40625 213.195312 146.492188 C 211.652344 144.820312 210.90625 142.421875 209.84375 140.53125 C 206.476562 134.542969 194.800781 132.488281 194.800781 132.488281 C 194.800781 132.488281 193.621094 140.796875 193.621094 140.796875 C 193.160156 144.023438 190.851562 150.546875 187.492188 152.015625 C 188.625 149.167969 190.140625 146.679688 190.425781 143.507812 C 190.429688 143.476562 191.347656 133.308594 193.359375 128.59375 C 197.578125 118.683594 181.472656 124.039062 177.917969 126.027344 C 173.65625 128.414062 167.949219 133.75 172.992188 138.609375 C 174.265625 139.835938 177.695312 142.464844 179.597656 141.964844 C 175.945312 142.921875 170.035156 141.808594 168.71875 137.777344 C 168.84375 138.15625 164.175781 142.835938 163.671875 143.496094 C 162.070312 145.605469 160.628906 147.832031 159.363281 150.160156 C 158.246094 152.210938 157.050781 154.433594 156.3125 156.652344 C 155.464844 159.195312 155.320312 161.878906 153.640625 164.101562 C 151.949219 166.335938 150.289062 168.550781 148.871094 170.976562 C 143.097656 180.871094 140.429688 191.222656 143.28125 202.492188 C 145.164062 209.933594 148.925781 216.902344 154.265625 222.433594 C 156.847656 225.113281 159.78125 227.355469 162.9375 229.300781 C 164.6875 230.378906 166.558594 231.164062 168.5 231.828125 C 170.148438 232.390625 172.582031 232.621094 174.03125 233.566406 C 158.425781 223.367188 145.925781 207.476562 149.714844 187.9375 C 152.425781 173.945312 159.550781 168.171875 159.554688 168.171875 C 159.003906 168.613281 159.503906 173.058594 159.585938 173.828125 C 159.8125 175.914062 160.582031 178.917969 162.476562 180.089844 C 161.578125 176.304688 160.632812 172.554688 161.351562 168.652344 C 162.078125 164.707031 163.988281 161.03125 166.238281 157.75 C 168.789062 154.023438 172.605469 151.429688 176.023438 155.953125 C 176.523438 156.617188 179.246094 162.664062 179.398438 162.660156 C 181.257812 162.644531 183.507812 164.054688 185.332031 163.5 C 188.359375 162.578125 190.917969 158.429688 193.539062 156.660156 C 194.652344 155.90625 196.015625 155.496094 195.070312 157.535156 C 193.960938 159.929688 191.769531 162.273438 190.914062 164.695312 C 190.324219 166.363281 190.992188 166.097656 192.640625 167.003906 C 193.890625 167.691406 195.109375 168.445312 196.1875 169.390625 C 199.667969 172.4375 199.285156 180.261719 203.722656 182.003906 C 203.210938 177.667969 205.011719 173.128906 209.308594 171.550781 C 215.859375 169.148438 222.660156 173.078125 228.015625 167.035156 C 230.371094 164.378906 230.328125 161.292969 231.878906 158.328125 C 232.542969 157.058594 234.300781 155.136719 233.328125 153.609375 Z M 204.113281 150.765625 C 202.761719 150.765625 201.664062 149.277344 201.664062 147.441406 C 201.664062 145.605469 202.761719 144.121094 204.113281 144.121094 C 205.46875 144.121094 206.5625 145.605469 206.5625 147.441406 C 206.5625 149.277344 205.46875 150.765625 204.113281 150.765625 Z M 204.113281 150.765625 "/><path style=" stroke:none;fill-rule:nonzero;fill:#022671;fill-opacity:1;" d="M 171.929688 179.628906 C 166.046875 174.273438 165.511719 164.367188 170.277344 158.015625 C 172.359375 155.242188 174.695312 157.144531 175.601562 160.039062 C 176.625 163.300781 178.496094 166.007812 180.707031 168.515625 C 180.351562 168.109375 176.410156 170.675781 175.886719 171.078125 C 174.339844 172.265625 173.152344 173.738281 172.492188 175.589844 C 172.257812 176.246094 171.175781 178.941406 171.929688 179.628906 Z M 171.929688 179.628906 "/><path style=" stroke:none;fill-rule:nonzero;fill:#022671;fill-opacity:1;" d="M 186.011719 176.917969 C 186.78125 177.136719 189.324219 175.246094 190.515625 175.285156 C 193.894531 175.394531 194.765625 180.167969 196.496094 182.25 C 195.292969 182.179688 193.839844 182.476562 192.664062 182.183594 C 189.46875 181.375 188.816406 177.71875 186.011719 176.917969 Z M 186.011719 176.917969 "/><path style=" stroke:none;fill-rule:nonzero;fill:#022671;fill-opacity:1;" d="M 175.296875 187.34375 C 176.457031 185.933594 182.527344 185.917969 184.257812 185.859375 C 187.46875 185.75 190.511719 186.261719 193.539062 187.300781 C 193.238281 186.347656 191.988281 185.449219 191.035156 184.933594 C 186.851562 182.679688 178.453125 183.507812 175.296875 187.34375 Z M 175.296875 187.34375 "/><path style=" stroke:none;fill-rule:nonzero;fill:#022671;fill-opacity:1;" d="M 177.796875 191.566406 C 182.40625 188.257812 189.242188 186.898438 194.589844 189.121094 C 192.632812 188.828125 190.71875 189.449219 188.78125 189.636719 C 185.058594 189.996094 181.429688 191.128906 177.796875 191.566406 Z M 177.796875 191.566406 "/><path style=" stroke:none;fill-rule:nonzero;fill:#022671;fill-opacity:1;" d="M 196.128906 190.847656 C 193.753906 190.226562 191.09375 190.941406 188.890625 191.867188 C 187.617188 192.402344 186.398438 193.066406 185.25 193.835938 C 184.519531 194.324219 183.144531 195.964844 182.355469 196.125 C 184.648438 195.660156 186.898438 194.136719 189.078125 193.261719 C 191.390625 192.335938 193.730469 191.511719 196.128906 190.847656 Z M 196.128906 190.847656 "/><path style=" stroke:none;fill-rule:nonzero;fill:#022671;fill-opacity:1;" d="M 214.609375 188.085938 C 214.609375 188.085938 209.625 188.523438 207.261719 189.9375 C 207.265625 189.9375 205.515625 186.664062 214.609375 188.085938 Z M 214.609375 188.085938 "/><path style=" stroke:none;fill-rule:nonzero;fill:#022671;fill-opacity:1;" d="M 207.128906 192.222656 L 207.128906 190.910156 C 207.128906 190.910156 213.210938 190.648438 214.609375 192.746094 C 214.609375 192.746094 210.929688 191.4375 207.128906 192.222656 Z M 207.128906 192.222656 "/><path style=" stroke:none;fill-rule:nonzero;fill:#022671;fill-opacity:1;" d="M 207.128906 193.488281 C 207.128906 193.488281 211.285156 195.023438 211.988281 196.769531 C 211.988281 196.769531 207.964844 194.496094 206.390625 194.757812 Z M 207.128906 193.488281 "/><g clip-rule="nonzero" clip-path="url(#b16c09e900)"><path style=" stroke:none;fill-rule:nonzero;fill:#022671;fill-opacity:1;" d="M 203.066406 188.832031 C 203.109375 188.105469 200.371094 187.699219 201.1875 186.054688 C 201.457031 185.511719 202.148438 185.347656 202.75 185.261719 C 203.640625 185.136719 204.578125 185.046875 205.414062 185.375 C 205.585938 185.441406 205.753906 185.527344 205.878906 185.660156 C 206.019531 185.808594 206.101562 186 206.152344 186.199219 C 206.515625 187.609375 205.078125 188.878906 205.011719 190.324219 C 204.882812 193.214844 203.5625 195.011719 202.398438 197.578125 C 197.738281 207.847656 201.503906 221.390625 209.003906 229.335938 C 211.039062 231.488281 213.363281 233.296875 215.832031 234.917969 C 214.425781 234.507812 213.015625 234.738281 211.605469 234.453125 C 201.316406 232.359375 190.886719 226.625 184.929688 217.789062 C 183.042969 214.996094 181.5625 211.707031 181.339844 208.304688 C 181.164062 205.617188 182.039062 202.9375 184.0625 201.101562 C 186.414062 198.972656 189.691406 198.882812 192.6875 199.027344 C 195.757812 199.175781 198.640625 198.503906 200.890625 196.238281 C 203.007812 194.109375 202.894531 191.621094 203.066406 188.832031 Z M 203.066406 188.832031 "/></g><g clip-rule="nonzero" clip-path="url(#3aa35cd1ee)"><g clip-rule="nonzero" clip-path="url(#93dd70fd41)"><path style=" stroke:none;fill-rule:nonzero;fill:#ff5757;fill-opacity:1;" d="M 167.90625 203.484375 L 220.746094 203.484375 L 220.746094 256.324219 L 167.90625 256.324219 Z M 167.90625 203.484375 "/></g></g></g></svg>